# xmcd CD database file
#
# Track frame offsets:
#	150
#	16392
#	28875
#	43257
#	57597
#	71637
#	85102
#	99140
#	112620
#	126415
#	141070
#	156132
#	168630
#	183690
#	195440
#	208850
#	220152
#	233687
#	245375
#	255334
#	269305
#	281810
#
# Disc length: 3904 seconds
#
# Revision: 0
# Processed by: cddbd v1.5PL3 Copyright (c) Steve Scherf et al.
# Submitted via: CDex 1.51
#
DISCID=3f0f3e16
DTITLE=Cab Calloway - Keep That Hi-De-Hi In Your Soul
DYEAR=1900
DGENRE=Jazz
TTITLE0=Minnie the Moocher
TTITLE1=The Scat Song
TTITLE2=Moon Glow
TTITLE3=Jitter Bug
TTITLE4=Weakness
TTITLE5=Keep That Hi-De-Hi in Your Soul
TTITLE6=Miss Otis Regrets
TTITLE7=Nagasaki
TTITLE8=You're the Cure for What Ails Me
TTITLE9=Love is the Reason
TTITLE10=When You're Smiling
TTITLE11=Copper Colored Girl
TTITLE12=The Wedding of Mr. and Mrs. Swing
TTITLE13=Congo
TTITLE14=Peckin'
TTITLE15=Wake Up and Live
TTITLE16=Moon at Sea
TTITLE17=She's Tall, She's Tan, She's Terrific
TTITLE18=Go South, Young Man
TTITLE19=Mama, I Wanna Make Rhythm
TTITLE20=Queen Isabella
TTITLE21=Every Day's a Holiday
EXTD=
EXTT0=
EXTT1=
EXTT2=
EXTT3=
EXTT4=
EXTT5=
EXTT6=
EXTT7=
EXTT8=
EXTT9=
EXTT10=
EXTT11=
EXTT12=
EXTT13=
EXTT14=
EXTT15=
EXTT16=
EXTT17=
EXTT18=
EXTT19=
EXTT20=
EXTT21=
PLAYORDER=
